<svg width="38" height="34" viewBox="0 0 38 34" fill="none" xmlns="http://www.w3.org/2000/svg">
<rect width="38" height="33.8993" fill="#F4F6F6"/>
<g clip-path="url(#clip0_35_11175)">
<path d="M25.2608 9.07623H13.0133C12.051 9.07623 11.2637 9.86357 11.2637 10.8259V23.0734C11.2637 24.0357 12.051 24.823 13.0133 24.823H25.2608C26.2231 24.823 27.0104 24.0357 27.0104 23.0734V10.8259C27.0104 9.86357 26.2231 9.07623 25.2608 9.07623ZM13.0133 24.1231C12.4359 24.1231 11.9635 23.6507 11.9635 23.0734V21.6387L16.1627 17.1071L22.9163 24.1231H13.0133ZM26.3106 23.0734C26.3106 23.6507 25.8382 24.1231 25.2608 24.1231H23.8786L18.8396 18.8742L22.7238 14.8325L26.3106 18.6993V23.0734ZM26.3106 17.667L22.9863 14.0802L22.9688 14.0627C22.9513 14.0627 22.9513 14.0452 22.9338 14.0452C22.9338 14.0452 22.9163 14.0277 22.8988 14.0277C22.8813 14.0277 22.8813 14.0102 22.8638 14.0102C22.8463 14.0102 22.8463 14.0102 22.8288 13.9927H22.6188C22.6013 13.9927 22.6013 13.9927 22.5838 14.0102C22.5663 14.0102 22.5663 14.0277 22.5489 14.0277C22.5314 14.0277 22.5314 14.0452 22.5139 14.0452C22.4964 14.0452 22.4964 14.0627 22.4789 14.0627L22.4614 14.0802L18.3497 18.3668L16.4076 16.3547C16.4076 16.3547 16.3901 16.3547 16.3901 16.3372C16.3726 16.3197 16.3726 16.3197 16.3551 16.3197C16.3551 16.3197 16.3376 16.3022 16.3201 16.3022C16.3026 16.3022 16.3026 16.2848 16.2851 16.2848C16.2676 16.2848 16.2676 16.2848 16.2501 16.2673H16.0402C16.0227 16.2673 16.0227 16.2673 16.0052 16.2848C15.9877 16.2848 15.9877 16.2848 15.9702 16.3022C15.9527 16.3022 15.9527 16.3197 15.9352 16.3197C15.9177 16.3197 15.9177 16.3372 15.9002 16.3372C15.9002 16.3372 15.8827 16.3372 15.8827 16.3547L11.9635 20.6064V10.8259C11.9635 10.2485 12.4359 9.77609 13.0133 9.77609H25.2608C25.8382 9.77609 26.3106 10.2485 26.3106 10.8259V17.667ZM15.1129 11.1758C14.1506 11.1758 13.3632 11.9631 13.3632 12.9254C13.3632 13.8877 14.1506 14.6751 15.1129 14.6751C16.0752 14.6751 16.8625 13.8877 16.8625 12.9254C16.8625 11.9631 16.0752 11.1758 15.1129 11.1758ZM15.1129 13.9752C14.5355 13.9752 14.0631 13.5028 14.0631 12.9254C14.0631 12.3481 14.5355 11.8757 15.1129 11.8757C15.6903 11.8757 16.1627 12.3481 16.1627 12.9254C16.1627 13.5028 15.6903 13.9752 15.1129 13.9752Z" fill="#2196F3"/>
</g>
<defs>
<clipPath id="clip0_35_11175">
<rect width="17.4964" height="17.4964" fill="white" transform="translate(10.3887 8.20142)"/>
</clipPath>
</defs>
</svg>
